<?xml version="1.0" encoding="UTF-8"?>
<svg xmlns="http://www.w3.org/2000/svg" version="1.1" viewBox="0 0 1080 1080">
  <defs>
    <style>
      .cls-1 {
        fill: #fff;
      }

      .cls-2 {
        display: none;
        stroke: #fff;
        stroke-miterlimit: 10;
      }
    </style>
  </defs>
  <!-- Generator: Adobe Illustrator 28.7.1, SVG Export Plug-In . SVG Version: 1.2.0 Build 142)  -->
  <g>
    <g id="Layer_1">
      <rect class="cls-2" x="110.07" y="60.17" width="909.08" height="909.08"/>
      <path d="M216.38,391.01c21.98,8.81,24.97,13.26,24.97,36.99,0,47.66,0,95.33,0,142.99,0,2.33.04,4.68-.2,6.99-1.07,10.36-6.31,17.67-16.07,21.57-8.73,3.49-9.22,4.2-9.22,13.55,0,72.83,0,145.65.01,218.48,0,2.66.14,5.33.37,7.98.73,8.4,4.5,12.65,12.81,13.12,9.13.52,18.32.68,27.45.23,10.97-.54,15.27-5.35,15.86-16.49,3.31-62.85,6.62-125.7,9.87-188.56.77-14.88,4.23-16.95,17.94-10.65,13.89,6.39,27.83,12.7,41.82,18.87,9.88,4.35,16.3,11.42,18.09,22.17.65,3.92.75,7.96.73,11.95-.1,27.49-.32,54.98-.44,82.47-.04,8.66-.03,17.33.18,25.99.29,12.07,5.21,16.84,17.3,17,6.66.09,13.33.03,20,.01,14.23-.04,19.31-5.09,19.33-19.26.07-45.49.01-90.99.22-136.48.08-18.47-7.71-31.72-24.03-40.5-15.68-8.43-30.96-17.61-46.49-26.32-6-3.37-8.68-8.19-8.59-15.09.24-17.16.15-34.33.23-51.49.04-8.14-1.1-9.91-8.86-12.14-18.27-5.24-29.53-17.19-34.42-35.41-4.75-17.67-9.61-35.31-14.34-52.98-.73-2.72-1.4-5.54-1.43-8.33-.05-4.11,4.18-7.23,6.96-4.97,3.46,2.81,7.41,6.37,8.62,10.37,5.26,17.34,9.53,34.98,14.31,52.47,3.6,13.19,11.41,21.84,25.28,25.43,38.32,9.94,76.47,20.54,114.71,30.76,11.08,2.96,22.16,6.1,33.44,8.06,9.23,1.61,16.68-3.99,21.27-14.01,4.12-8.99,3.29-17.11-3.97-23.19-4.96-4.15-10.94-7.93-17.09-9.69-31.98-9.14-64.11-17.78-96.3-26.14-11.59-3.01-19.14-9.35-22.4-20.93-1.76-6.23-3.87-12.38-6.03-18.49-8.68-24.57-18.97-48.4-35.21-69.05-15.7-19.96-37.83-26.57-62.08-19.36-24.55,7.31-42.11,27.68-44.61,52.05ZM445.75,900.69c2.23,0,3.87,0,5.51,0,14.16.05,28.33.16,42.49.16,88.5.01,177,.02,265.5,0,24.14,0,44.79-18.4,47.03-41.8,2.5-26.1-13.3-48.76-37.8-53.31-7.46-1.38-15.23-1.47-22.86-1.49-44.83-.13-89.67-.08-134.5-.05-11.98,0-22.43-3.47-29.67-13.51-7.77-10.78-9.81-22.59-4.03-34.88,5.9-12.55,16.32-19.34,30-20,13.62-.66,27.3-.28,40.95-.26,76.16.09,152.33.23,228.49.31,35.72.04,66.39-24.97,74.93-61.01,7.96-33.58-9.33-70.97-39.93-86.52-13.72-6.98-28.41-9.08-43.55-9.12-17.83-.05-35.67,0-53.5-.04-27.83-.07-55.65-.2-83.48-.27-22.49-.05-45.01.74-67.46-.25-33.51-1.48-59.13-28.8-60.03-62.55-.87-32.66,24.08-62.28,56.7-65.25,18.85-1.71,37.94-.75,56.92-.98,2.12-.03,4.24,0,6.52,0v-13.67c-16.64,0-32.97-.63-49.22.21-11.54.6-23.49,1.61-34.35,5.18-29.64,9.73-44.64,32.68-49.77,62.1-5.28,30.32,7.08,54.46,30.14,73.37,14.67,12.04,32.45,15.74,51.01,15.77,64.33.09,128.66-.03,192.99.09,11.12.02,22.29-.09,33.01,4.06,28.3,10.97,46.31,41.88,41.06,70.82-5.85,32.26-31.72,54.37-63.9,54.36-42.83-.01-85.65-.21-128.48-.3-38.5-.08-77-.17-115.5-.13-9.48,0-19.04-.2-28.42.9-25.71,3.02-42.75,23.14-42.21,48.99.51,24.36,18.97,44.84,44.03,45.9,28.44,1.21,56.96.03,85.45.34,24.47.27,48.98.37,73.37,2.06,22.63,1.57,35.81,25.4,26.69,46.22-6.63,15.14-19.01,21.08-34.88,21.02-23.66-.09-47.32-.28-70.98-.31-77.66-.09-155.33-.12-232.99-.18-1.75,0-3.49,0-5.28,0v14ZM720.22,189.02c-36.32,60.76-72.23,120.82-108.36,181.26h81.34c-1.89-31.33.79-45.34,12.53-60.32,13.57-17.3,31.55-27.57,53.36-30.1,20.33-2.36,37.98,4.89,53.56,17.58,23.34,19.01,28.71,44.35,24.75,72.74h65.95c-36.22-60.52-72.09-120.43-108.42-181.13-2,2.25-3.46,4.05-5.07,5.7-8.37,8.6-16.7,17.23-25.18,25.7-5.76,5.75-8.34,5.68-14.29.09-1.94-1.82-3.77-3.77-5.6-5.7-8.02-8.41-16.03-16.84-24.57-25.82ZM131.39,443.29c9.25,0,18.21.27,27.15-.07,10.6-.41,13.96,2.47,13.98,12.98.07,31.81.15,63.62.24,95.42.03,9.47-4.11,13.14-13.61,12.82-8.91-.3-17.84-.07-26.59-.07-3.98,14.86.17,22.75,12.72,23,22.64.45,45.3.36,67.94.02,9.5-.14,12.78-4.14,13.29-13.86.14-2.66.33-5.32.33-7.98.02-46.8.03-93.61-.01-140.41,0-2.99-.12-6.02-.61-8.95-.95-5.75-4.81-9.4-10.56-9.43-24.65-.13-49.29-.13-73.94,0-5.62.03-10,3.79-10.23,9.02-.39,8.94-.11,17.9-.11,27.5ZM765.12,435.42c12.86-12.47,24.97-23.9,36.69-35.73,5.25-5.3,10.42-10.93,14.36-17.21,15.51-24.75,8.23-58.92-15.85-76.69-24.02-17.72-59.15-14.11-78.9,8.12-18.82,21.18-20.88,53.9-3.2,73.79,14.67,16.5,30.93,31.59,46.91,47.73ZM675.54,153.15c-43.84,73.03-87.09,145.09-130.68,217.7,15.62,0,30.24.3,44.83-.26,2.79-.11,6.39-3.02,8.02-5.63,10.94-17.49,21.5-35.23,32.1-52.93,21.97-36.7,43.87-73.44,65.86-110.12,2.37-3.96,3.82-7.87,1.32-12.18-6.93-11.93-13.96-23.81-21.46-36.57ZM838.22,153.21c-6.62,11.13-12.49,21.56-18.93,31.61-3.88,6.05-3.26,11.21.28,17.09,20.78,34.51,41.34,69.14,62.02,103.71,11.79,19.71,23.71,39.35,35.49,59.08,2.39,4.01,5.15,6.43,10.3,6.29,10.32-.27,20.65.11,30.97.2,3.26.03,6.52,0,10.73,0-43.8-72.97-87.03-144.97-130.86-217.98ZM229.85,273.36c-.02,27.45,20.58,48.17,47.9,48.16,25.91,0,46.49-20.65,46.61-46.74.11-26.2-20.6-47.22-46.58-47.26-26.72-.04-47.91,20.22-47.92,45.84ZM476.67,555.1v219.42h16.05v-219.42h-16.05ZM757.36,208.57c9.04-9.45,17.6-18.29,26.02-27.25,2.83-3.01,2.96-6.29.7-10-8.29-13.66-16.36-27.45-24.53-41.18-.54-.91-1.22-1.73-2.26-3.19-9.24,15.66-18.29,30.58-26.75,45.83-1.13,2.04-.31,6.62,1.34,8.51,7.96,9.16,16.52,17.8,25.48,27.28ZM157.13,459.05h-24.88v89.37h24.88v-89.37ZM741.53,430.79c-.61,2.36-1.23,4.39-1.66,6.47-2.27,11.07,1.68,21.08,10.63,27.06,8.84,5.9,21.6,5.96,30.22.13,9.16-6.19,13.61-17.15,11.05-27.95-.45-1.92-2.07-3.56-3.14-5.32-5.32,6.18-9.75,11.8-14.68,16.95-7.36,7.69-9.8,7.7-17.07.12-5.26-5.49-10.06-11.41-15.34-17.47ZM475.52,422.51c0,13.76,0,27.19,0,40.63,0,12.24,1.5,13.94,13.66,15.38,1.13.13,2.29.02,3.72.02v-56.03h-17.38Z"/>
      <path class="cls-1" d="M390.35,928.69c-6.25-3.2-13.44-5.34-18.57-9.82-12.08-10.54-14.22-29.06-6.24-42.97,7.8-13.61,24.15-20.33,39.5-16.25,15.03,4,25.48,17.71,25.57,33.57.1,16.34-10.23,29.76-26.2,34.08-1.38.37-2.71.92-4.06,1.38h-10Z"/>
      <path d="M216.38,391.01c2.5-24.37,20.06-44.74,44.61-52.05,24.25-7.22,46.38-.6,62.08,19.36,16.24,20.65,26.54,44.47,35.21,69.05,2.16,6.11,4.27,12.25,6.03,18.49,3.27,11.58,10.81,17.92,22.4,20.93,32.2,8.36,64.32,17,96.3,26.14,6.15,1.76,12.12,5.54,17.09,9.69,7.26,6.08,8.09,14.2,3.97,23.19-4.59,10.02-12.04,15.62-21.27,14.01-11.27-1.97-22.36-5.1-33.44-8.06-38.25-10.22-76.39-20.83-114.71-30.76-13.87-3.6-21.68-12.24-25.28-25.43-4.78-17.49-9.04-35.13-14.31-52.47-1.21-4-5.16-7.56-8.62-10.37-2.78-2.26-7.02.86-6.96,4.97.03,2.78.7,5.61,1.43,8.33,4.73,17.67,9.59,35.31,14.34,52.98,4.9,18.22,16.15,30.17,34.42,35.41,7.76,2.22,8.9,3.99,8.86,12.14-.08,17.16,0,34.33-.23,51.49-.09,6.9,2.59,11.72,8.59,15.09,15.53,8.72,30.81,17.89,46.49,26.32,16.33,8.78,24.12,22.04,24.03,40.5-.21,45.49-.15,90.99-.22,136.48-.02,14.17-5.11,19.21-19.33,19.26-6.67.02-13.33.07-20-.01-12.09-.16-17.01-4.94-17.3-17-.21-8.66-.22-17.33-.18-25.99.12-27.49.34-54.98.44-82.47.01-3.99-.08-8.03-.73-11.95-1.79-10.75-8.22-17.83-18.09-22.17-14-6.16-27.93-12.47-41.82-18.87-13.7-6.31-17.17-4.24-17.94,10.65-3.25,62.85-6.56,125.71-9.87,188.56-.59,11.13-4.9,15.94-15.86,16.49-9.13.45-18.32.29-27.45-.23-8.31-.47-12.08-4.72-12.81-13.12-.23-2.65-.37-5.32-.37-7.98-.02-72.83-.02-145.65-.01-218.48,0-9.35.5-10.06,9.22-13.55,9.76-3.9,15.01-11.21,16.07-21.57.24-2.31.2-4.66.2-6.99.01-47.66,0-95.33,0-142.99,0-23.73-2.98-28.18-24.97-36.99Z"/>
      <path d="M445.75,900.69v-14c1.79,0,3.53,0,5.28,0,77.66.05,155.33.09,232.99.18,23.66.03,47.32.22,70.98.31,15.87.06,28.25-5.88,34.88-21.02,9.13-20.82-4.06-44.66-26.69-46.22-24.39-1.69-48.9-1.79-73.37-2.06-28.48-.32-57.01.86-85.45-.34-25.05-1.06-43.52-21.54-44.03-45.9-.54-25.85,16.5-45.97,42.21-48.99,9.38-1.1,18.94-.89,28.42-.9,38.5-.04,77,.05,115.5.13,42.83.09,85.65.29,128.48.3,32.19.01,58.05-22.1,63.9-54.36,5.25-28.95-12.76-59.86-41.06-70.82-10.71-4.15-21.89-4.04-33.01-4.06-64.33-.12-128.66,0-192.99-.09-18.56-.03-36.34-3.73-51.01-15.77-23.06-18.92-35.42-43.06-30.14-73.37,5.13-29.42,20.13-52.37,49.77-62.1,10.87-3.57,22.82-4.58,34.35-5.18,16.25-.84,32.58-.21,49.22-.21v13.67c-2.28,0-4.4-.02-6.52,0-18.98.23-38.07-.73-56.92.98-32.61,2.96-57.57,32.59-56.7,65.25.9,33.75,26.52,61.07,60.03,62.55,22.45.99,44.97.19,67.46.25,27.83.07,55.65.2,83.48.27,17.83.04,35.67-.01,53.5.04,15.14.04,29.83,2.15,43.55,9.12,30.59,15.56,47.89,52.95,39.93,86.52-8.55,36.04-39.21,61.05-74.93,61.01-76.16-.08-152.33-.22-228.49-.31-13.65-.02-27.33-.39-40.95.26-13.68.66-24.1,7.45-30,20-5.78,12.3-3.74,24.11,4.03,34.88,7.24,10.03,17.69,13.52,29.67,13.51,44.83-.03,89.67-.08,134.5.05,7.63.02,15.4.11,22.86,1.49,24.49,4.55,40.3,27.21,37.8,53.31-2.24,23.4-22.89,41.8-47.03,41.8-88.5.02-177,.01-265.5,0-14.16,0-28.33-.1-42.49-.16-1.64,0-3.28,0-5.51,0Z"/>
      <path d="M720.22,189.02c8.54,8.98,16.55,17.41,24.57,25.82,1.84,1.93,3.66,3.88,5.6,5.7,5.95,5.59,8.53,5.66,14.29-.09,8.49-8.47,16.82-17.11,25.18-25.7,1.61-1.65,3.08-3.45,5.07-5.7,36.33,60.69,72.2,120.61,108.42,181.13h-65.95c3.96-28.4-1.41-53.74-24.75-72.74-15.58-12.69-33.23-19.94-53.56-17.58-21.81,2.53-39.78,12.8-53.36,30.1-11.75,14.98-14.42,28.99-12.53,60.32h-81.34c36.13-60.44,72.03-120.5,108.36-181.26Z"/>
      <path d="M131.39,443.29c0-9.59-.28-18.56.11-27.5.23-5.24,4.61-8.99,10.23-9.02,24.65-.14,49.29-.14,73.94,0,5.75.03,9.61,3.68,10.56,9.43.49,2.94.6,5.97.61,8.95.04,46.8.03,93.61.01,140.41,0,2.66-.19,5.32-.33,7.98-.51,9.73-3.79,13.72-13.29,13.86-22.64.34-45.3.43-67.94-.02-12.55-.25-16.7-8.13-12.72-23,8.76,0,17.68-.24,26.59.07,9.5.33,13.63-3.34,13.61-12.82-.09-31.81-.16-63.62-.24-95.42-.02-10.51-3.38-13.39-13.98-12.98-8.94.34-17.9.07-27.15.07Z"/>
      <path d="M765.12,435.42c-15.97-16.13-32.23-31.22-46.91-47.73-17.68-19.89-15.63-52.61,3.2-73.79,19.75-22.23,54.88-25.84,78.9-8.12,24.08,17.77,31.36,51.94,15.85,76.69-3.93,6.28-9.11,11.91-14.36,17.21-11.71,11.83-23.83,23.26-36.69,35.73Z"/>
      <path d="M675.54,153.15c7.5,12.76,14.53,24.64,21.46,36.57,2.5,4.3,1.06,8.22-1.32,12.18-22,36.68-43.89,73.43-65.86,110.12-10.6,17.7-21.16,35.44-32.1,52.93-1.63,2.61-5.23,5.52-8.02,5.63-14.59.56-29.21.26-44.83.26,43.58-72.6,86.84-144.67,130.68-217.7Z"/>
      <path d="M838.22,153.21c43.83,73.01,87.05,145.01,130.86,217.98-4.2,0-7.46.02-10.73,0-10.33-.09-20.66-.47-30.97-.2-5.15.13-7.91-2.28-10.3-6.29-11.77-19.73-23.69-39.36-35.49-59.08-20.68-34.57-41.24-69.2-62.02-103.71-3.54-5.88-4.16-11.04-.28-17.09,6.45-10.05,12.31-20.47,18.93-31.61Z"/>
      <path d="M229.85,273.36c.02-25.62,21.2-45.89,47.92-45.84,25.98.04,46.69,21.06,46.58,47.26-.11,26.1-20.69,46.74-46.61,46.74-27.32,0-47.92-20.71-47.9-48.16Z"/>
      <path d="M476.67,555.1h16.05v219.42h-16.05v-219.42Z"/>
      <path d="M757.36,208.57c-8.97-9.48-17.52-18.13-25.48-27.28-1.65-1.9-2.47-6.47-1.34-8.51,8.46-15.25,17.51-30.17,26.75-45.83,1.04,1.46,1.72,2.28,2.26,3.19,8.17,13.73,16.24,27.52,24.53,41.18,2.26,3.72,2.13,6.99-.7,10-8.42,8.96-16.98,17.8-26.02,27.25Z"/>
      <path d="M157.13,459.05v89.37h-24.88v-89.37h24.88Z"/>
      <path d="M741.53,430.79c5.29,6.05,10.08,11.98,15.34,17.47,7.27,7.59,9.71,7.57,17.07-.12,4.93-5.15,9.36-10.77,14.68-16.95,1.07,1.76,2.69,3.4,3.14,5.32,2.56,10.8-1.89,21.76-11.05,27.95-8.62,5.83-21.39,5.77-30.22-.13-8.95-5.98-12.9-15.99-10.63-27.06.43-2.08,1.05-4.11,1.66-6.47Z"/>
      <path d="M475.52,422.51h17.38v56.03c-1.43,0-2.59.12-3.72-.02-12.16-1.44-13.66-3.14-13.66-15.38,0-13.43,0-26.87,0-40.63Z"/>
    </g>
  </g>
</svg>