<?xml version="1.0" encoding="UTF-8"?>
<svg xmlns="http://www.w3.org/2000/svg" version="1.1" viewBox="0 0 3299.6 1080">
  <defs>
    <style>
      .cls-1 {
        fill: #fff;
      }

      .cls-2 {
        fill: #00a1cd;
      }
    </style>
  </defs>
  <!-- Generator: Adobe Illustrator 28.7.1, SVG Export Plug-In . SVG Version: 1.2.0 Build 142)  -->
  <g>
    <g id="Layer_1">
      <g id="Layer_1-2" data-name="Layer_1">
        <g>
          <path class="cls-2" d="M175.6,379.6c4.9-26.5,19.5-44.4,44.9-52.1,24.8-7.5,46.7.1,62.3,19.7,10.6,13.3,18.3,29.3,25.6,44.9,6.6,14.2,11,29.5,16,44.4,3.2,9.7,9.2,15.4,19.4,18,33.6,8.6,67.2,17.5,100.6,27.2,6.8,2,14.1,6.9,18.1,12.6,5.6,7.9,3.2,17.3-2.4,25.3-5.8,8.2-14.2,10.2-23.2,7.8-48.8-12.8-97.6-25.8-146.3-39.3-12-3.3-18.8-13.1-22-25-4.6-17.1-9.1-34.2-13.7-51.2-.3-1.2-.3-2.9-1.1-3.7-3.1-3-6.7-8.3-9.6-8-7.1.7-5.8,7.1-4.6,12.2.9,4.1,2.2,8.1,3.3,12.1,3.8,14,7.7,27.9,11.3,41.9,4.9,19.2,16.6,31.7,35.8,36.7,6.2,1.6,8,4.6,7.8,10.7-.4,17.7.1,35.4-.2,53.2-.1,7,2.5,11.2,8.6,14.6,16.1,8.8,31.8,18.4,47.9,27.2,15.4,8.4,22.6,20.9,22.5,38.5-.3,45.7,0,91.5-.1,137.2,0,14.3-4.9,19.3-19,19.5-6.4,0-12.9,0-19.3,0-13.2-.2-18-4.8-18-18.3-.1-35.8-.8-71.5.2-107.3.5-17.8-4.7-29.2-22.3-35.4-13.9-4.9-26.9-12.3-40.3-18.5-11.3-5.1-15.4-2.7-16.1,9.7-2.2,41.2-4.2,82.3-6.3,123.5-1.1,22.2-2.3,44.4-3.6,66.6-.7,12.1-5.6,16.8-17.5,17.1-7.1.2-14.2.2-21.3,0-12.9-.3-17.4-4.8-17.5-17.6-.1-28.3,0-56.7,0-85,0-46.4,0-92.8-.1-139.2,0-5.8.9-8.8,7.5-10.9,11.3-3.6,17.9-12.5,18-24.8.1-52.2.2-104.4,0-156.6,0-16.1-10.3-24-25.2-27.7h0Z"/>
          <path class="cls-2" d="M683.6,425.3v12.7c-17.5,0-34.8,0-52,0-16.7-.1-31.8,4.3-44.7,15.1-21.9,18.4-29.3,46-19.4,72.4,10.1,27,33.2,42.1,63,42.1,67-.1,134-.3,201.1.1,40.7.3,70.1,23.3,79.3,60.6,11.8,48.2-25.6,96-75.2,95.9-86.4-.2-172.7-.5-259.1-.8-11.1,0-21.9,1-30.8,8.8-11.2,9.7-14.9,24-9.9,37.7,5.1,13.9,16.9,22.5,32.7,22.7,21.9.3,43.8,0,65.7,0,28,0,56.1-.3,84.1.3,25.4.5,44.8,19,47.3,43.6,2.5,24-12.4,45.3-36,51.4-3.4.9-7,1.3-10.5,1.3-102.8,0-205.6-.1-308.4-.2-1.6,0-3.2-.2-5.5-.4v-13.5h12.5c98.6.2,197.2.3,295.8.5,12.2,0,22.9-2.6,30.9-12.7,16.6-20.8,5.7-51.2-20.7-55-15.5-2.2-31.5-2-47.2-2-35.1,0-70.2.6-105.4.5-30,0-51-20.2-51.3-48.7-.2-22.4,16.5-42.6,38.8-46.4,6-1,12.2-1.4,18.3-1.4,85.4.2,170.8.5,256.2.8,29.1,0,53.7-17.1,62.8-44,9-26.8-.2-55.8-23.3-73.1-10.9-8.1-23.3-12.3-36.9-12.3-65.7-.2-131.5-.9-197.2,0-26.2.3-49.5-4.7-67.5-24.5-21-23-27.5-50.2-16.9-79.7,10.7-29.9,32.9-48,64.3-51.3,21.3-2.3,43-.4,65.3-.4h0Z"/>
          <path class="cls-2" d="M652.7,358.9h-81.4c36.2-60.5,71.7-120,108.4-181.3,10.1,10.7,19,20.4,28.3,29.7,7.8,8,10.1,7.9,18.2-.2,9.3-9.3,18.4-18.8,28.4-29.1,36.4,60.7,71.8,120,108.1,180.5h-65.8c5.2-33.7-4.6-61.2-33.7-79.5-24.4-15.3-50.6-15.1-75.2-.8-30.5,17.8-40.6,45.8-35.1,80.5h0Z"/>
          <path class="cls-2" d="M724.9,423c-15.8-15.5-32.7-29.7-46.8-46.2-19.5-22.8-15.3-58.4,7.4-79.3,21.4-19.7,58-19.2,79.2,1,22.4,21.3,25.6,56.4,5.6,79.4-13.8,16-30,29.9-45.4,45.1h0ZM744.3,335.2c-2.9-3.7-4.2-7.1-6.3-7.7-2.5-.7-6.3.3-8.4,2-4.2,3.3-7.1,8.1-13.7,4.2-1.3-.7-5.7,1.6-6.8,3.6-1.1,1.9-.8,6.4.7,7.6,4.4,3.5,11.6,9.5,14.3,8,7.5-4,13.2-11.2,20.2-17.7h0Z"/>
          <path class="cls-2" d="M91.6,552.7c9.1,0,18.3-.3,27.6,0,8.9.4,13.1-3,13.1-12.3-.2-32.5-.2-65,0-97.5,0-8.2-3.5-11.8-11.6-11.5-9.6.2-19.2,0-29.9,0,0-9.2-.3-17.5,0-25.8.3-7,5.2-10.5,11.6-10.6,23.8-.3,47.6-.4,71.4,0,9.4.1,12.3,6.6,12.3,15.1,0,17.7,0,35.4,0,53.1,0,31.5,0,63.1,0,94.6,0,14.2-3.6,17.8-17.6,17.8-19.6,0-39.3,0-58.9,0-16.9,0-20.5-4.5-17.8-23h0ZM133.7,406.4c-8.7,0-17.3,0-26,0-5.2,0-10.9,1.4-9.4,7.7.7,3.1,6.4,6.9,10,7.1,16.7.8,33.4.4,50.1.3,5.3,0,10.7-1.5,9.4-7.7-.6-2.9-5.6-6.6-9-7-8.2-1-16.6-.3-25-.3h0Z"/>
          <path class="cls-2" d="M634.9,142c7.9,13.3,15.2,25.1,21.9,37.1,1.2,2.2,1,6.3-.3,8.6-33.2,55.9-66.6,111.6-100.2,167.2-1.3,2.2-4.8,4.3-7.4,4.4-14.1.4-28.3.2-44.5.2,43.8-72.9,86.7-144.5,130.5-217.5h0Z"/>
          <path class="cls-2" d="M928.2,359.4c-16.1,0-30.5.2-44.8-.2-2.1,0-4.7-2.9-6-5.1-33.4-55.4-66.6-110.9-99.7-166.6-1.5-2.6-2.6-7.2-1.3-9.5,6.4-11.8,13.6-23.2,21.4-36,43.6,72.7,86.6,144.3,130.5,217.4h0Z"/>
          <path class="cls-2" d="M237.2,309.7c-27.5,0-48.1-20.9-47.9-48.5.2-25,22.1-45.6,48.1-45.4,25.6.2,46.3,21.3,46.2,47.1,0,26.1-20.6,46.8-46.4,46.7h0Z"/>
          <path class="cls-2" d="M452.4,763.1h-16.6v-219.6h16.6v219.6Z"/>
          <path class="cls-2" d="M320.5,881.8c0-19.4,15.6-35,35-34.9,18.9,0,34.3,15.4,34.5,34.5.3,19.6-15.6,35.3-35.7,35.2-18.9,0-33.8-15.3-33.8-34.8Z"/>
          <path class="cls-2" d="M116.7,537h-25.4v-89.8h25.4v89.8Z"/>
          <path class="cls-2" d="M716.7,196.5c-9.4-9.8-18-18.5-26.1-27.5-1.4-1.6-2.1-5.6-1.1-7.3,8.6-15,17.6-29.8,27.5-46.3,10,16.6,19.2,31.9,28,47.4.8,1.5-1,5.3-2.6,7.1-7.8,8.5-16.1,16.7-25.7,26.6Z"/>
          <path class="cls-2" d="M452.3,467.2c-11.5-1.5-17.2-7.3-17.2-17.5v-39h17.2v56.5h0Z"/>
          <path class="cls-2" d="M750.6,422.4c2.8,13.8-1.1,24.2-11.5,30.9-8.9,5.7-22.2,4.9-30.7-1.9-9.1-7.1-12.2-18.1-7.2-32.4,4.3,5.4,7.3,9.9,11,13.8,12.4,12.9,12.8,13,25.5-.2,3.7-3.9,6.5-8.6,9.8-13,1.1,1,2.2,1.9,3.2,2.9Z"/>
          <path class="cls-1" d="M744.3,335.2c-7,6.5-12.8,13.7-20.2,17.7-2.7,1.4-9.9-4.5-14.3-8-1.4-1.1-1.7-5.7-.7-7.6,1.1-2,5.5-4.3,6.8-3.6,6.6,3.8,9.5-1,13.7-4.2,2.1-1.7,5.9-2.6,8.4-2,2.1.5,3.4,3.9,6.3,7.7h0Z"/>
          <path class="cls-1" d="M133.7,406.4c8.3,0,16.8-.7,25,.3,3.4.4,8.5,4.1,9,7,1.2,6.2-4.2,7.7-9.4,7.7-16.7,0-33.4.4-50.1-.3-3.6-.2-9.2-4-10-7.1-1.4-6.2,4.3-7.6,9.4-7.7,8.7-.1,17.3,0,26,0h0Z"/>
        </g>
      </g>
      <g>
        <path class="cls-2" d="M1034.8,488.8c4.3-6.6,11.7-11.7,22.1-15.2,10.5-3.5,24.5-5.3,42.2-5.3s15.9.3,23.2,1c7.3.7,13.4,1.4,18.3,2.2v30l-1.4,1.2c-5-.8-11.2-1.5-18.5-1.9-7.3-.5-14.2-.7-20.7-.7-9.2,0-16.3.4-21,1.2-4.8.8-8,2-9.7,3.5-1.7,1.5-2.6,3.5-2.6,5.9v1.8c0,2.3.4,4,1.3,5.2.9,1.2,2.7,2.1,5.3,2.8,2.7.7,7,1.1,13.2,1.2l20.2,1.6c9.8.5,18,2.3,24.5,5.2,6.5,2.9,11.3,7.1,14.2,12.5,2.9,5.4,4.4,12.2,4.4,20.2s-2.1,19.1-6.2,25.9c-4.2,6.8-11.4,12.1-21.7,15.8-10.3,3.7-24.6,5.6-42.8,5.6s-20.5-.4-29.4-1.2c-8.8-.8-15.2-1.6-19.2-2.4v-30.6l1-1c17.7,2.3,33.5,3.5,47.5,3.5s15.2-.4,19.9-1.3c4.7-.9,7.9-2.2,9.7-3.9,1.8-1.7,2.7-4,2.7-7v-1.6c0-2.7-.5-4.7-1.4-5.9-1-1.2-3.1-2.2-6.4-3-3.3-.7-9.1-1.4-17.2-1.9l-21.4-1.4c-8.6-.5-15.5-2.3-20.8-5.4s-9.2-7.3-11.7-12.6c-2.5-5.4-3.8-11.9-3.8-19.5s2.1-17.8,6.4-24.4Z"/>
        <path class="cls-2" d="M1167.9,606.7v-153h37.3v153h-37.3ZM1195.5,537.3h19.2v28.8h-19.2v-28.8ZM1282.6,498.9l1.4,1.4-41.8,49.6,43.7,55.3-1.2,1.4h-42.4l-42.6-54.7-.2-1,41.4-52h41.8Z"/>
        <path class="cls-2" d="M1326.8,498.9l17.1,40.2c1.1,2.9,2.4,7.1,3.9,12.7,1.5,5.6,3,11.9,4.5,18.9h5.9l4.3,35.9h-28.8l-45.1-106.1,1-1.6h37.1ZM1343.4,589.7l2.4-19h8c1.4-5.7,2.8-11.6,4.4-17.7,1.6-6.1,3.1-11.1,4.6-15.1l14.1-39h36.9l1,1.6-57.9,152.6h-37.1l-1-1.2,24.7-62.2Z"/>
        <path class="cls-2" d="M1468,470.4v136.3h-38.6v-136.3h38.6ZM1538.8,521.4v33.5h-91.8v-33.5h91.8ZM1558.6,470.4v136.3h-38.8v-136.3h38.8Z"/>
        <path class="cls-2" d="M1581.9,459.3c.9-2,2.7-3.3,5.4-4.1,2.7-.7,7.1-1.1,13.1-1.1s10.7.4,13.3,1.1c2.6.7,4.4,2.1,5.3,4.1,1,2,1.4,5.2,1.4,9.7s-.5,7.3-1.4,9.3c-1,2-2.7,3.3-5.3,4.1-2.6.7-7,1.1-13.3,1.1s-10.3-.4-13.1-1.1c-2.7-.7-4.5-2.1-5.4-4.1-.9-2-1.3-5.1-1.3-9.3s.4-7.7,1.3-9.7ZM1619.2,498.9v107.7h-37.3v-107.7h37.3Z"/>
        <path class="cls-2" d="M1649,647.6c-8.2-5.4-12.2-12.8-12.2-22.3s1.4-9.7,4.1-13.1c2.7-3.4,6.7-5.4,12-5.9l-.2-3.5,19.4,3.1c-1,1.9-1.6,3.9-1.8,5.9-.3,2-.4,4.2-.4,6.5v1.8c0,2.6.5,4.6,1.4,6,1,1.4,2.8,2.5,5.6,3.2,2.8.7,7.2,1,13.2,1h6.3c6,0,10.6-.3,13.8-1,3.2-.7,5.3-1.7,6.2-3.2,1-1.4,1.4-3.3,1.4-5.6v-2.4c0-2.7-.5-4.7-1.5-5.8-1-1.2-3.2-1.7-6.4-1.7h-30.4c-14,0-23.9-2.2-29.7-6.7-5.8-4.5-8.7-10.9-8.7-19.4s1.3-9,3.9-12.3c2.6-3.3,6.1-5.7,10.6-7l.6-3.5,13.7,7.3c-1,1-1.6,2.1-1.8,3.4-.3,1.3-.5,2.6-.6,4v1.8c0,2,.7,3.6,2.1,4.8,1.4,1.2,3.6,1.7,6.6,1.7h38.6c12.2,0,21.8,2.7,28.6,8.2,6.8,5.4,10.2,13.1,10.2,22.8s-2,16.8-6,22.5c-4,5.8-10.5,10.1-19.5,13.1-9,2.9-20.5,4.4-34.7,4.4-21.4,0-36.1-2.7-44.3-8.1ZM1661.9,568.5c-7.3-3.1-12.8-7.5-16.4-13.2-3.7-5.6-5.5-12.1-5.5-19.5s2.1-14.6,6.3-20.6c4.2-6,10-10.6,17.3-13.9,7.3-3.3,15.8-4.9,25.5-4.9s18.6,1.6,25.9,4.9c7.3,3.3,13.1,7.9,17.2,13.8,4.1,5.9,6.2,12.8,6.2,20.7s-1.9,14-5.6,19.6c-3.7,5.6-9.3,9.9-16.6,13.1-7.3,3.1-16.4,4.7-27.1,4.7s-20-1.6-27.2-4.7ZM1698.9,546.7c2.4-1,4.1-2.1,4.9-3.6.8-1.4,1.2-3.4,1.2-5.8v-4.1c0-2.6-.5-4.8-1.4-6.5-1-1.8-2.6-3-4.9-3.8-2.3-.7-5.6-1.1-9.8-1.1s-7.3.4-9.6,1.2c-2.3.8-3.9,2-4.9,3.7-1,1.6-1.4,3.8-1.4,6.5v4.1c0,2.4.5,4.4,1.5,5.8,1,1.4,2.7,2.6,4.9,3.6,2.2,1,5.5,1.4,9.7,1.4s7.3-.5,9.8-1.4ZM1700,498.9h53.4v20.4l-20.4,3.1-33-23.5Z"/>
        <path class="cls-2" d="M1807.5,453.7v153h-37.3v-153h37.3ZM1820.2,501.5c5.5-3.3,12.9-5,22.1-5s21.3,3.4,27.9,10.2c6.7,6.8,10,17.3,10,31.4v68.5h-37.1v-65.9c0-2.4-.4-4.5-1.3-6-.9-1.6-2.5-2.8-5-3.7-2.4-.9-5.8-1.3-10.2-1.3s-7.9.5-11.7,1.4c-3.9,1-6.8,2.1-8.7,3.5l-1.6-18.4h3.5c2.6-6.5,6.6-11.5,12.1-14.8Z"/>
        <path class="cls-2" d="M2029.4,470.4l1.8,32.8h-9c-6,20.5-11.5,36.8-16.5,48.8l-20.6,54.7h-39.4l-1.4-1.6,54.1-134.6h31ZM2062.3,553.2l.2,26.5h-78.7l.2-26.5h78.3ZM2101.8,605l-1.4,1.6h-39.2l-21-54.7c-4.6-12-9.9-28.2-15.9-48.8h-9.8l1.2-32.8h32.2l53.9,134.6Z"/>
        <path class="cls-2" d="M2127,602.6c-6.9-4.4-12.2-10.7-16-19.2-3.8-8.4-5.7-18.6-5.7-30.4s2.3-22.8,6.8-31.3c4.6-8.5,10.9-14.8,19-19,8.1-4.1,17.2-6.2,27.2-6.2s9.6.3,13.7.9c4.1.6,8.1,1.5,12,2.8h5.1l-3.3,26.7c-3.7-.4-7.2-.7-10.7-.9-3.5-.2-7.1-.3-10.9-.3-5.6,0-9.9.7-12.9,2-3,1.4-5.1,3.7-6.3,7.1-1.2,3.4-1.8,8.2-1.8,14.5v8.8c0,5.6.6,10,1.8,13.2,1.2,3.2,3.3,5.4,6.1,6.7,2.9,1.3,6.9,1.9,12,1.9s8.9-.5,12.3-1.4c3.5-.9,6.6-2.1,9.3-3.5l4.9,15.5h-3.7c-2.3,6.1-6.4,10.7-12.2,13.9-5.8,3.1-13.4,4.7-22.6,4.7s-17.3-2.2-24.2-6.5ZM2184.9,587.5v-133.8h37.1v153h-26.7l-10.4-19.2Z"/>
        <path class="cls-2" d="M2274.4,498.9l15.3,45.7c.8,3.4,2,8.5,3.5,15.3,1.5,6.8,2.7,12.6,3.5,17.5h1.4c1-4.9,2.2-10.7,3.7-17.5,1.5-6.8,2.7-11.9,3.5-15.3l15.3-45.7h37.3l1.4,1.6-37.3,106.1h-49l-37.3-106.1,1-1.6h37.7Z"/>
        <path class="cls-2" d="M2370.4,522.2c4.6-8.4,11.3-14.8,20.1-19.2,8.8-4.4,19.7-6.5,32.4-6.5s19.4,1.6,26.8,4.9c7.4,3.3,13.2,8.2,17.3,14.9,4.1,6.7,6.2,14.8,6.2,24.5v21h-76.5v-22h42v-5.5c0-3.3-.5-5.7-1.4-7.4-1-1.7-2.7-3-5.2-3.8-2.5-.8-6.2-1.2-10.9-1.2h-1.6c-5.6,0-9.7.8-12.4,2.3-2.7,1.6-4.6,3.8-5.7,6.8-1.1,3-1.6,7.1-1.6,12.4v22.6c0,3.7.8,6.6,2.5,8.8,1.7,2.2,4.8,3.8,9.2,4.9,4.4,1.1,10.8,1.6,19.3,1.6s15-.4,21.6-1.2c6.7-.8,11.9-1.6,15.7-2.4l.8.8v25.1c-4.8,1.4-10.7,2.6-17.9,3.8-7.1,1.2-15,1.7-23.6,1.7-16.2,0-29-2.2-38.4-6.6-9.4-4.4-16-10.7-19.9-18.8-3.9-8.1-5.8-18.2-5.8-30.3s2.3-22.8,6.8-31.2Z"/>
        <path class="cls-2" d="M2518.2,498.9l10.4,18.6v89.1h-37.3v-107.7h26.9ZM2541.1,501.6c5.4-3.4,12.8-5.1,22.1-5.1s21.1,3.4,27.9,10.1c6.8,6.7,10.2,17.2,10.2,31.5v68.5h-37.1v-65.9c0-2.4-.4-4.5-1.3-6-.9-1.6-2.5-2.8-5-3.7-2.4-.9-5.8-1.3-10.2-1.3s-7.9.5-11.7,1.4c-3.9,1-6.8,2.1-8.7,3.5l-3.3-18.4h4.5c3-6.4,7.2-11.3,12.5-14.7Z"/>
        <path class="cls-2" d="M2703,498.9v30.6h-87.7v-30.6h87.7ZM2692.4,608c-5.6.7-10.9,1.1-16.1,1.1-11,0-19.9-1.8-26.5-5.3-6.7-3.5-11.4-8.6-14.3-15.1-2.9-6.5-4.3-14.7-4.3-24.5v-86.1l23.7-7.8h13.5v94c0,2.9.3,5.1.9,6.6.6,1.6,2,2.8,4.2,3.6,2.2.8,5.4,1.2,9.8,1.2,8,0,14.7-.3,20-1l1.2,1v30.2c-2.4.5-6.5,1.2-12,1.9Z"/>
        <path class="cls-2" d="M2780.1,604.1c-5.7,3.3-13.1,5-22,5s-21.7-3.6-28.7-10.7c-7-7.1-10.5-17.9-10.5-32.1v-67.3h37.5v64.7c0,4.8,1.2,8,3.5,9.7,2.3,1.7,6.4,2.5,12.2,2.5s7.8-.5,11.4-1.6c3.7-1.1,6.7-2.4,9.2-4.1l4.1,19.4h-4.5c-2.4,6.4-6.5,11.3-12.2,14.6ZM2800.9,606.7l-9-19.6v-88.1h37.3v107.7h-28.4Z"/>
        <path class="cls-2" d="M2877.6,498.9l11.6,21.2v86.5h-37.3v-107.7h25.7ZM2899.9,502.3c5.3-3.2,11.6-4.8,19-4.8s4.4.1,6.1.4c1.8.3,3.1.5,3.9.8v33.5l-1.2,1.4c-2.6-.1-5-.2-7.3-.2-6.8,0-12.2.3-16.3.9-4.1.6-7.5,1.4-10.2,2.3-2.7,1-6.2,2.1-10.4,3.5l-.8-23.9h5.5c2.6-6.1,6.5-10.8,11.8-14Z"/>
        <path class="cls-2" d="M2943.2,522.2c4.6-8.4,11.3-14.8,20.1-19.2,8.8-4.4,19.7-6.5,32.4-6.5s19.4,1.6,26.8,4.9c7.4,3.3,13.2,8.2,17.3,14.9,4.1,6.7,6.2,14.8,6.2,24.5v21h-76.5v-22h42v-5.5c0-3.3-.5-5.7-1.4-7.4-1-1.7-2.7-3-5.2-3.8-2.5-.8-6.2-1.2-10.9-1.2h-1.6c-5.6,0-9.7.8-12.4,2.3-2.7,1.6-4.6,3.8-5.7,6.8-1.1,3-1.6,7.1-1.6,12.4v22.6c0,3.7.8,6.6,2.5,8.8,1.7,2.2,4.8,3.8,9.2,4.9,4.4,1.1,10.8,1.6,19.3,1.6s15-.4,21.6-1.2c6.7-.8,11.9-1.6,15.7-2.4l.8.8v25.1c-4.8,1.4-10.7,2.6-17.9,3.8-7.1,1.2-15,1.7-23.6,1.7-16.2,0-29-2.2-38.4-6.6-9.4-4.4-16-10.7-19.9-18.8-3.9-8.1-5.8-18.2-5.8-30.3s2.3-22.8,6.8-31.2Z"/>
        <path class="cls-2" d="M3065.9,513.9c3.4-5.2,9.5-9.5,18.4-12.6,8.8-3.2,20.9-4.8,36.3-4.8s12.5.2,17.6.7c5.1.5,10.3,1.2,15.6,2.1v27.5l-1.2,1c-4.6-.7-9.7-1.3-15.3-1.8-5.6-.5-11.1-.8-16.5-.8s-12.2.3-15.8,1c-3.6.7-6,1.4-7,2.2-1.1.8-1.6,2-1.6,3.5v1.2c0,1.4.4,2.4,1.3,3.2.9.7,3.4,1.5,7.4,2.2,4.1.7,10.5,1.3,19.4,1.5,9,.4,16.2,1.8,21.6,4.2,5.4,2.4,9.3,5.7,11.5,10s3.4,9.8,3.4,16.4-1.8,14.8-5.3,20.4c-3.5,5.6-9.5,10-17.7,13.2-8.3,3.2-19.5,4.8-33.7,4.8s-15-.3-22.5-1c-7.5-.7-13.2-1.4-17-2.2v-27.5l1-1.2c14,2.2,26.8,3.3,38.4,3.3s9.9-.3,13.1-.9c3.1-.6,5.3-1.4,6.5-2.4,1.2-1,1.8-2.2,1.8-3.6v-1.8c0-1.6-.6-2.9-1.7-3.8-1.2-.9-3.8-1.6-7.9-2.2-4.1-.6-10.6-1.1-19.6-1.3-8.8-.5-15.9-2.2-21.1-5-5.2-2.8-8.9-6.4-11.1-10.8-2.2-4.4-3.3-9.7-3.3-15.8s1.7-13.4,5.1-18.7Z"/>
      </g>
    </g>
  </g>
</svg>